<?xml version="1.0" encoding="UTF-8" standalone="no"?>
<!-- Created with Inkscape (http://www.inkscape.org/) -->

<svg
   version="1.1"
   id="svg2"
   width="52.919998"
   height="52.919998"
   viewBox="0 0 52.919998 52.919998"
   sodipodi:docname="ARTG024-QuartermasterGeneral-EastFront-Card-Icon-Response-Advance.eps"
   xmlns:inkscape="http://www.inkscape.org/namespaces/inkscape"
   xmlns:sodipodi="http://sodipodi.sourceforge.net/DTD/sodipodi-0.dtd"
   xmlns="http://www.w3.org/2000/svg"
   xmlns:svg="http://www.w3.org/2000/svg">
  <defs
     id="defs6" />
  <sodipodi:namedview
     id="namedview4"
     pagecolor="#ffffff"
     bordercolor="#000000"
     borderopacity="0.25"
     inkscape:showpageshadow="2"
     inkscape:pageopacity="0.0"
     inkscape:pagecheckerboard="0"
     inkscape:deskcolor="#d1d1d1" />
  <g
     id="g8"
     inkscape:groupmode="layer"
     inkscape:label="ink_ext_XXXXXX"
     transform="matrix(1.3333333,0,0,-1.3333333,0,52.92)">
    <g
       id="g10"
       transform="scale(0.1)">
      <path
         d="m 362.707,198.434 -115.16,58.296 11.07,-41.414 -224.4725,19.872 V 161.66 l 224.4725,19.871 -11.07,-41.41 115.16,58.293 -0.019,0.012 z m -192.73,-38.633 11.07,-41.414 -146.9025,13.004 V 71.5977 l 146.9025,13.0039 -11.07,-41.4102 115.164,58.2926 -0.02,0.012 0.02,0.008 z m 0,77.25 115.164,58.297 -0.02,0.007 0.02,0.008 -115.164,58.297 11.07,-41.41 -146.9025,13.004 v -59.797 l 146.9025,13.004 -11.07,-41.41"
         style="fill:#ffffff;fill-opacity:1;fill-rule:nonzero;stroke:none"
         id="path12" />
    </g>
  </g>
</svg>
