<?xml version="1.0" encoding="UTF-8"?>
<svg version="1.1" viewBox="0 0 1210 2048" width="1280" height="1280" xmlns="http://www.w3.org/2000/svg">
	<path transform="translate(526,26)" d="m0 0 11 1 30 8 131 36 410 113 54 15 10 5 4 5 2 6v8l-7 27-19 69-16 58-41 149-56 203-17 62-13 47-11 40-41 149-16 58-12 43-4 15-5 8-5 4-6 2h-7l-34-9-171-47-1-3 9-27 11-28 16-39 15-36 14-35 11-30 8-24 7-26 6-31 2-21v-26l-3-23-4-16-7-17-9-14-9-11-14-11-17-9-18-6-13-2h-30l-20 4-19 7-18 10-16 13-9 9-10 13-12 21-12 27-10 27-8 25-11 41-9 39-11 50-8 30-10 30-9 22-3 6-11-3-62-17-58-16-72-20-6-3-6-7-2-5v-9l12-45 44-160 40-145 17-62 16-58 22-80 16-58 19-69 24-87 22-80 21-76 5-8 4-4z" fill="#FEFEFE"/>
	<path transform="translate(525,6)" d="m0 0h11l27 7 62 17 65 18 24-1 133-8h7l12 3 8 5 7 8 6 12 3 15v4l20 2 111 13 16 4 11 6 7 8 5 11 1 4 1 16 24 7 73 20 18 6 8 6 8 9 4 9 1 5v14l-8 31-20 72-25 91-16 58-19 69-25 91-13 47-17 62-13 47-15 54v6l11 14 9 13 10 17 11 23 10 27 8 30 6 29 5 36 3 32 2 39 1 34 1 65 2 67 1 20v55l-3 34-4 26-6 25-9 27-9 21-9 17-10 16-12 17-8 10-11 13-9 10-7 8-27 27-8 7-14 13-11 9-7 7-11 9-10 9-11 9-13 11-15 13-11 9-13 12-11 9-17 16-10 9-8 7-15 14-14 14-8 7-19 19-7 8-14 14-7 8-9 10-9 11-9 10-8 10-14 18-13 18-12 18-8 13-12 21-14 29-10 26-4 11-5 4-8-1-5-4-1-4 4-15 9-24 12-25 10-19 12-20 17-25 14-19 11-14 14-17 13-15 11-12 7-8 8-8 7-8 45-45 8-7 10-10 8-7 13-12 8-7 11-10 8-7 14-12 10-9 11-9 28-24 11-9 11-10 11-9 17-16 8-7 32-32 7-8 11-13 15-20 12-19 11-20 10-24 8-26 6-28 3-22 2-30v-50l-2-51-2-116-2-43-3-36-5-37-5-26-7-27-7-21-8-19-8-16-10-17-7-10-2 2-25 91-24 87-22 80-5 15-5 8-5 6-10 6-9 3h-14l-28-7h-2l-1 14 21-2h26l5 3 2 5-1 7-5 5-35 2-18 3-19 5-19 7-23 12-14 10-17 17v2l21 11 18 12 16 13 18 18 12 16 3 5 1 5-3 5-6 4-6-1-5-5-14-17-10-11-8-7-13-10-16-10-15-8-20-8-20-5-22-3 19 56 8 28 5 24 1 14-3 6-4 2-9-1-3-3-4-21-6-26-14-43-12-36-7-25-5-25-3-25v-35l3-26 5-23 8-27 12-32 19-46 17-41 14-35 13-36 8-26 6-25 4-24 1-12v-26l-3-21-5-16-8-16-7-9-9-9-14-9-16-6-17-3h-19l-14 2-21 7-15 8-13 10-12 12-9 13-7 12-13 29-12 34-10 34-9 36-17 76-6 23-8 26-7 19-11 26-8 15-6 11-12 20-12 16-8 10-12 14-9 10-9 11-11 13-8 10-10 13-14 18-24 34-11 17-12 19-12 21-12 22-10 19-13 28-15 36-13 37-10 32-8 31-7 30-8 42-7 50-3 29-3 38-3 59-3 39-4 30-6 30-8 30-12 36-12 31-14 32-9 20-5 6-2 1-9-1-5-6 1-7 19-42 12-30 10-28 8-26 8-33 6-36 3-29 5-92 5-53 6-44 8-44 9-40 11-40 12-36 9-25 12-29 12-26 11-23 12-22 13-23 13-21 18-27 12-17 14-19 22-28 9-11 11-13 7-9 3-4-37 9-58 13-54 12h-11l-13-4-11-8-7-10-4-12-16-70-13-57-27-118-21-92-23-100-17-75-20-87-17-74-29-127-23-100-6-28v-12l4-13 7-10 10-7 10-4 87-20 31-7h3v-14l4-13 7-10 7-6 10-5 14-2 130-8 2-1 3-15 6-12 8-8 8-5 10-3h12l86 10 18 2 7 1 3-9 7-11 9-8 9-4zm1 20-6 3-6 7-4 11-20 73-24 87-22 80-13 47-22 80-32 116-20 73-21 76-22 80-24 87-23 84-8 30v9l4 8 7 6 35 10 62 17 80 22 25 7 4 1 6-13 9-23 9-29 9-36 14-64 10-39 9-30 9-26 11-26 8-16 9-16 8-10 9-10 10-9 13-9 15-8 21-7 16-3h30l17 3 16 6 15 8 10 8 7 6 11 15 8 16 5 15 3 14 2 18v26l-3 27-6 29-8 28-8 24-14 37-14 34-15 36-15 37-13 35-3 12 8 3 70 19 58 16 65 18 5 1h7l9-4 5-6 4-11 17-62 22-80 32-116 55-200 16-58 22-80 16-58 22-80 48-174 1-5v-8l-3-7-4-5-12-5-62-17-189-52-327-90-39-11-10-2z" fill="#020202"/>
	<path transform="translate(321,91)" d="m0 0h11l-1 16-16 135-10 86-15 128-16 137-15 127-16 135-9 78-2 15-2-1-7-113-14-231-12-201-10-164-7-114 1-11 3-6 8-7 12-2z" fill="#FEFEFE"/>
	<path transform="translate(157,149)" d="m0 0h5l2 25 21 349 14 231 9 151 4 67 1 12v17h-2l-7-34-7-30-13-56-14-61-21-92-22-96-13-57-19-83-21-92-39-170-7-33 1-10 6-8 8-4 51-12z" fill="#FEFEFE"/>
	<path transform="translate(369,47)" d="m0 0h17l94 11 6 2-4 17-24 87-41 149-19 69-24 87-22 80-40 145-21 76-20 73-8 28-2 2 1-13 8-70 27-229 26-222 20-171 12-102 3-10 4-5z" fill="#FEFEFE"/>
	<path transform="translate(740,1134)" d="m0 0 7 1 41 11 54 15 6 3 1 24-5 3-24 8-19 9-16 10-14 11-15 15-5 7h-2l-1-7-3-26-6-41-1-16v-13l1-13z" fill="#FEFEFE"/>
	<path transform="translate(236,1042)" d="m0 0 5 2 12 6 19 3 146 17 37 4v4l-185 11h-18l-8-5-4-5-2-4-2-27z" fill="#FEFEFE"/>
	<path transform="translate(691,1120)" d="m0 0 9 2 18 5 2 4-1 12v25l4 33 6 41v4l-15-1-17-1-3-5-5-23-3-21-1-11v-27l3-26 2-10z" fill="#FEFEFE"/>
	<path transform="translate(428,1099)" d="m0 0h13l-2 4-74 17-75 17-28 6-9-1-6-4-4-5-4-12-3-12v-5l9 3 4 1h28z" fill="#FEFEFE"/>
	<path transform="translate(247,991)" d="m0 0 6 4 10 6 23 7 121 33 29 8 10 4v1l-10-1-175-21-8-3-6-7-2-4v-13l1-13z" fill="#FEFEFE"/>
	<path transform="translate(634,727)" d="m0 0 5 1 3 3-1 6-8 10-10 18-6 14-4 14v13l4 8 8 5 19 6 28 7 13 2h25l8-3 4-4 4-11 4-21 3-18 1-1h7l3 3v8l-4 25-4 15-6 10-7 6-13 4h-22l-25-4-27-7-20-7-8-6-5-7-2-6-1-13 3-17 8-20 9-16 10-14z" fill="#020202"/>
	<path transform="translate(835,60)" d="m0 0h21l6 4 4 5 4 11v3h-10l-54-6-24-3-24-6-2-2 2-1z" fill="#FEFEFE"/>
	<path transform="translate(917,109)" d="m0 0 100 12 13 3 6 4 4 6 1 3v7l-9-1-70-19-43-12-2-1z" fill="#FEFEFE"/>
	<path transform="translate(594,935)" d="m0 0h16l18 3 12 4 16 8 10 8 4 5-1 4-4 4-5-2-9-7-15-8-17-5-7-1h-21l-10 1-3-4v-5l5-3z" fill="#020202"/>
</svg>
