<?xml version="1.0" encoding="UTF-8" standalone="no"?>
<!-- Created with Inkscape (http://www.inkscape.org/) -->

<svg
   version="1.1"
   id="svg2"
   width="52.919998"
   height="52.919998"
   viewBox="0 0 52.919998 52.919998"
   sodipodi:docname="ARTG024-QuartermasterGeneral-EastFront-Card-Icon-Response-SeaCombat.eps"
   xmlns:inkscape="http://www.inkscape.org/namespaces/inkscape"
   xmlns:sodipodi="http://sodipodi.sourceforge.net/DTD/sodipodi-0.dtd"
   xmlns="http://www.w3.org/2000/svg"
   xmlns:svg="http://www.w3.org/2000/svg">
  <defs
     id="defs6" />
  <sodipodi:namedview
     id="namedview4"
     pagecolor="#ffffff"
     bordercolor="#000000"
     borderopacity="0.25"
     inkscape:showpageshadow="2"
     inkscape:pageopacity="0.0"
     inkscape:pagecheckerboard="0"
     inkscape:deskcolor="#d1d1d1" />
  <g
     id="g8"
     inkscape:groupmode="layer"
     inkscape:label="ink_ext_XXXXXX"
     transform="matrix(1.3333333,0,0,-1.3333333,0,52.92)">
    <g
       id="g10"
       transform="scale(0.1)">
      <path
         d="m 198.32,347.992 c 7.969,0 14.426,-6.461 14.426,-14.426 0,-7.968 -6.457,-14.425 -14.426,-14.425 -7.965,0 -14.425,6.457 -14.425,14.425 0,7.965 6.46,14.426 14.425,14.426 z m 153.504,-216.765 -34.277,67.714 -0.004,-0.011 -0.008,0.011 -34.277,-67.714 23.512,6.25 C 293.277,99.6289 266.375,84.6445 230.398,79.9297 l -11.734,33.4063 -5.918,67.363 v 60.367 h 57.246 c 6.309,-4.375 14.481,-7.171 20.836,-7.171 11.926,0 21.594,9.668 21.594,21.593 0,11.93 -9.668,21.598 -21.594,21.598 -6.355,0 -14.527,-2.801 -20.836,-7.168 h -57.246 v 38.469 c 8.754,5.027 14.715,14.359 14.715,25.179 0,16.094 -13.043,29.141 -29.141,29.141 -16.093,0 -29.14,-13.047 -29.14,-29.141 0,-10.82 5.965,-20.152 14.715,-25.179 V 269.918 H 128.27 c -7.09,4.367 -16.098,7.168 -22.454,7.168 -11.9293,0 -21.5972,-9.668 -21.5972,-21.598 0,-11.925 9.6679,-21.593 21.5972,-21.593 6.356,0 15.364,2.796 22.454,7.171 h 55.625 V 180.699 L 177.98,113.336 166.246,79.9297 c -36,4.7187 -62.91,19.7148 -76.3944,57.6093 l 23.7424,-6.312 -34.2776,67.714 -0.0078,-0.011 -0.0039,0.011 -34.2774,-67.714 21.1446,5.621 C 84.5938,72.9023 133.84,34.1445 198.32,34.1445 c 64.5,0 113.754,38.7813 132.164,102.7535 l 21.34,-5.671"
         style="fill:#ffffff;fill-opacity:1;fill-rule:nonzero;stroke:none"
         id="path12" />
    </g>
  </g>
</svg>
