<?xml version="1.0" encoding="UTF-8" standalone="no"?>
<!-- Created with Inkscape (http://www.inkscape.org/) -->

<svg
   version="1.1"
   id="svg2"
   width="52.919998"
   height="52.919998"
   viewBox="0 0 52.919998 52.919998"
   sodipodi:docname="ARTG024-QuartermasterGeneral-EastFront-Card-Icon-Response-Retreat.eps"
   xmlns:inkscape="http://www.inkscape.org/namespaces/inkscape"
   xmlns:sodipodi="http://sodipodi.sourceforge.net/DTD/sodipodi-0.dtd"
   xmlns="http://www.w3.org/2000/svg"
   xmlns:svg="http://www.w3.org/2000/svg">
  <defs
     id="defs6" />
  <sodipodi:namedview
     id="namedview4"
     pagecolor="#ffffff"
     bordercolor="#000000"
     borderopacity="0.25"
     inkscape:showpageshadow="2"
     inkscape:pageopacity="0.0"
     inkscape:pagecheckerboard="0"
     inkscape:deskcolor="#d1d1d1" />
  <g
     id="g8"
     inkscape:groupmode="layer"
     inkscape:label="ink_ext_XXXXXX"
     transform="matrix(1.3333333,0,0,-1.3333333,0,52.92)">
    <g
       id="g10"
       transform="scale(0.1)">
      <path
         d="m 319.73,293.367 c -56.39,44.461 -148.359,56.199 -217.839,57.293 0,0 3.949,-71.324 3.949,-71.32 2.203,0.254 6.566,0.644 9.058,0.797 22.688,1.562 45.852,1.707 68.493,0.254 44.769,-3.621 102.867,-11.418 128.343,-48.985 8.286,-12.726 10.2,-30.515 7.864,-46.117 -2.864,-15.773 -12.723,-26.492 -27.246,-35.617 -9.969,-6.164 -21.661,-10.984 -33.922,-14.809 -33.848,-9.64 -75.481,-14.668 -122.25,-16.14 v 1.179 l 10.851,40.594 -82.0271,-41.523 -30.8594,-15.621 0.0196,-0.008 -0.0196,-0.012 24.086,-12.1914 88.8005,-44.9492 -10.851,40.5899 v 0.7773 c 102.043,-0.8828 183.539,15.8204 212.468,64.4494 9.149,14.996 12.438,32.316 13.782,49.691 2.715,35.414 -14.938,70.278 -42.7,91.668"
         style="fill:#ffffff;fill-opacity:1;fill-rule:nonzero;stroke:none"
         id="path12" />
    </g>
  </g>
</svg>
