<?xml version="1.0" encoding="UTF-8" standalone="no"?>
<!-- Created with Inkscape (http://www.inkscape.org/) -->

<svg
   version="1.1"
   id="svg2"
   width="52.919998"
   height="52.919998"
   viewBox="0 0 52.919998 52.919998"
   sodipodi:docname="ARTG024-QuartermasterGeneral-EastFront-Card-Icon-Response-StandFast.eps"
   xmlns:inkscape="http://www.inkscape.org/namespaces/inkscape"
   xmlns:sodipodi="http://sodipodi.sourceforge.net/DTD/sodipodi-0.dtd"
   xmlns="http://www.w3.org/2000/svg"
   xmlns:svg="http://www.w3.org/2000/svg">
  <defs
     id="defs6" />
  <sodipodi:namedview
     id="namedview4"
     pagecolor="#ffffff"
     bordercolor="#000000"
     borderopacity="0.25"
     inkscape:showpageshadow="2"
     inkscape:pageopacity="0.0"
     inkscape:pagecheckerboard="0"
     inkscape:deskcolor="#d1d1d1" />
  <g
     id="g8"
     inkscape:groupmode="layer"
     inkscape:label="ink_ext_XXXXXX"
     transform="matrix(1.3333333,0,0,-1.3333333,0,52.92)">
    <g
       id="g10"
       transform="scale(0.1)">
      <path
         d="m 94.8398,321.988 v -68.941 c 0,-59.649 20.7072,-94.539 30.6562,-111.301 l 1.836,-3.121 c 8.488,-14.539 49.395,-60.3086 71.09,-72.1523 21.703,11.8437 62.609,57.6133 71.094,72.1523 l 1.839,3.121 c 9.95,16.762 30.653,51.652 30.653,111.301 v 68.941 c -24.024,3.492 -76.067,10.567 -103.586,10.567 -27.516,0 -79.559,-7.075 -103.5822,-10.567 z M 198.422,34.1445 l -4.75,1.5703 c -31.895,10.5821 -83.828,73.0582 -92.379,87.7032 l -1.7305,2.934 C 88.2383,145.434 64.6797,185.125 64.6797,253.047 v 94.828 l 12.7422,1.996 c 3.3476,0.524 82.2971,12.836 121.0001,12.836 38.711,0 117.66,-12.312 121.008,-12.836 l 12.742,-1.996 v -94.828 c 0,-67.922 -23.559,-107.613 -34.883,-126.695 l -1.73,-2.934 C 287.008,108.773 235.07,46.2969 203.168,35.7148 l -4.746,-1.5703"
         style="fill:#ffffff;fill-opacity:1;fill-rule:nonzero;stroke:none"
         id="path12" />
    </g>
  </g>
</svg>
